<svg width="24" height="24" viewBox="0 0 24 24" fill="none" xmlns="http://www.w3.org/2000/svg">
<path d="M8.75 8C8.94891 8 9.13968 8.07902 9.28033 8.21967C9.42098 8.36032 9.5 8.55109 9.5 8.75V17.75C9.5 17.9489 9.42098 18.1397 9.28033 18.2803C9.13968 18.421 8.94891 18.5 8.75 18.5C8.55109 18.5 8.36032 18.421 8.21967 18.2803C8.07902 18.1397 8 17.9489 8 17.75V8.75C8 8.55109 8.07902 8.36032 8.21967 8.21967C8.36032 8.07902 8.55109 8 8.75 8ZM12.5 8C12.6989 8 12.8897 8.07902 13.0303 8.21967C13.171 8.36032 13.25 8.55109 13.25 8.75V17.75C13.25 17.9489 13.171 18.1397 13.0303 18.2803C12.8897 18.421 12.6989 18.5 12.5 18.5C12.3011 18.5 12.1103 18.421 11.9697 18.2803C11.829 18.1397 11.75 17.9489 11.75 17.75V8.75C11.75 8.55109 11.829 8.36032 11.9697 8.21967C12.1103 8.07902 12.3011 8 12.5 8ZM17 8.75C17 8.55109 16.921 8.36032 16.7803 8.21967C16.6397 8.07902 16.4489 8 16.25 8C16.0511 8 15.8603 8.07902 15.7197 8.21967C15.579 8.36032 15.5 8.55109 15.5 8.75V17.75C15.5 17.9489 15.579 18.1397 15.7197 18.2803C15.8603 18.421 16.0511 18.5 16.25 18.5C16.4489 18.5 16.6397 18.421 16.7803 18.2803C16.921 18.1397 17 17.9489 17 17.75V8.75Z" fill="white"/>
<path fill-rule="evenodd" clip-rule="evenodd" d="M21.5 4.5C21.5 4.89782 21.342 5.27936 21.0607 5.56066C20.7794 5.84196 20.3978 6 20 6H19.25V19.5C19.25 20.2956 18.9339 21.0587 18.3713 21.6213C17.8087 22.1839 17.0456 22.5 16.25 22.5H7.25C6.45435 22.5 5.69129 22.1839 5.12868 21.6213C4.56607 21.0587 4.25 20.2956 4.25 19.5V6H3.5C3.10218 6 2.72064 5.84196 2.43934 5.56066C2.15804 5.27936 2 4.89782 2 4.5V3C2 2.60218 2.15804 2.22064 2.43934 1.93934C2.72064 1.65804 3.10218 1.5 3.5 1.5H8.75C8.75 1.10218 8.90804 0.720644 9.18934 0.43934C9.47064 0.158035 9.85218 0 10.25 0L13.25 0C13.6478 0 14.0294 0.158035 14.3107 0.43934C14.592 0.720644 14.75 1.10218 14.75 1.5H20C20.3978 1.5 20.7794 1.65804 21.0607 1.93934C21.342 2.22064 21.5 2.60218 21.5 3V4.5ZM5.927 6L5.75 6.0885V19.5C5.75 19.8978 5.90804 20.2794 6.18934 20.5607C6.47064 20.842 6.85218 21 7.25 21H16.25C16.6478 21 17.0294 20.842 17.3107 20.5607C17.592 20.2794 17.75 19.8978 17.75 19.5V6.0885L17.573 6H5.927ZM3.5 4.5V3H20V4.5H3.5Z" fill="white"/>
</svg>
